<svg width="50" height="24" viewBox="0 0 50 24" fill="none" xmlns="http://www.w3.org/2000/svg">
<g clip-path="url(#clip0_208_950)">
<path d="M33.1667 6C31.792 6 30.668 7.1056 30.668 8.45776C30.668 9.80993 31.792 10.9155 33.1667 10.9155C34.5414 10.9155 35.6654 9.80993 35.6654 8.45776C35.6654 7.1056 34.5414 6 33.1667 6ZM33.1667 9.70653C32.4713 9.70653 31.8971 9.14976 31.8971 8.45776C31.8971 7.77373 32.4632 7.209 33.1667 7.209C33.8621 7.209 34.4363 7.76577 34.4363 8.45776C34.4363 9.1418 33.8621 9.70653 33.1667 9.70653Z" fill="#83C5BE"/>
<path d="M37.3148 12.2361C37.3553 11.8702 37.3391 11.6475 37.1612 11.4487C37.1207 11.4009 37.0641 11.3453 36.7569 11.1782L35.7865 10.6612C35.4873 10.5021 35.1153 10.6055 34.9536 10.8998C34.7919 11.1941 34.897 11.56 35.1962 11.7191L35.4469 11.8543L36.0776 12.1963L35.5843 17.0482H35.2043C35.1719 17.0482 35.1477 17.0482 35.1234 17.0562C34.6868 17.096 34.3471 17.4618 34.3471 17.8993V22.9103C34.2016 23.0217 34.1045 23.1966 34.1045 23.3955C34.1045 23.7295 34.3795 24 34.7191 24C35.1962 24 35.5763 23.6182 35.5763 23.1569V18.2652H35.8108C36.1666 18.2652 36.2636 18.2334 36.3202 18.2095C36.6032 18.1061 36.7407 17.8516 36.7892 17.3982L37.3148 12.2361Z" fill="#83C5BE"/>
<path d="M29.5763 11.1782C29.2691 11.3453 29.2124 11.4009 29.172 11.4487C28.9941 11.6396 28.9779 11.8623 29.0184 12.2361L29.544 17.3982C29.5925 17.8516 29.7381 18.0982 30.013 18.2095C30.0696 18.2334 30.1666 18.2652 30.5224 18.2652H30.7569V23.1569C30.7569 23.6261 31.1451 24 31.6141 24C31.9537 24 32.2287 23.7295 32.2287 23.3955C32.2287 23.1966 32.1316 23.0217 31.9861 22.9103V17.8993C31.9861 17.4618 31.6464 17.096 31.2098 17.0562C31.1855 17.0562 31.1532 17.0482 31.1289 17.0482H30.7489L30.2556 12.1963L30.8863 11.8543L31.137 11.7191C31.4362 11.56 31.5413 11.1941 31.3796 10.8998C31.2179 10.6055 30.8459 10.5021 30.5467 10.6612L29.5763 11.1782Z" fill="#83C5BE"/>
<path d="M41.4997 0C40.125 0 39.001 1.1056 39.001 2.45776C39.001 3.80993 40.125 4.91553 41.4997 4.91553C42.8744 4.91553 43.9984 3.80993 43.9984 2.45776C43.9984 1.1056 42.8744 0 41.4997 0ZM41.4997 3.70653C40.8043 3.70653 40.2302 3.14976 40.2302 2.45776C40.2302 1.77373 40.7962 1.209 41.4997 1.209C42.1952 1.209 42.7693 1.76577 42.7693 2.45776C42.7693 3.1418 42.1952 3.70653 41.4997 3.70653Z" fill="#83C5BE"/>
<path d="M45.6483 6.23611C45.6887 5.87023 45.6725 5.64752 45.4946 5.44867C45.4542 5.40094 45.3976 5.34527 45.0903 5.17823L44.1199 4.66123C43.8207 4.50215 43.4488 4.60555 43.287 4.89985C43.1253 5.19414 43.2304 5.56002 43.5296 5.7191L43.7803 5.85432L44.411 6.19634L43.9178 11.0482H43.5377C43.5054 11.0482 43.4811 11.0482 43.4569 11.0562C43.0202 11.096 42.6806 11.4618 42.6806 11.8993V16.9103C42.535 17.0217 42.438 17.1966 42.438 17.3955C42.438 17.7295 42.7129 18 43.0525 18C43.5296 18 43.9097 17.6182 43.9097 17.1569V12.2652H44.1442C44.5 12.2652 44.597 12.2334 44.6536 12.2095C44.9367 12.1061 45.0741 11.8516 45.1226 11.3982L45.6483 6.23611Z" fill="#83C5BE"/>
<path d="M37.9093 5.17823C37.602 5.34527 37.5454 5.40094 37.505 5.44867C37.3271 5.63956 37.3109 5.86227 37.3513 6.23611L37.8769 11.3982C37.9254 11.8516 38.071 12.0982 38.3459 12.2095C38.4025 12.2334 38.4996 12.2652 38.8554 12.2652H39.0899V17.1569C39.0899 17.6261 39.478 18 39.947 18C40.2867 18 40.5616 17.7295 40.5616 17.3955C40.5616 17.1966 40.4646 17.0217 40.319 16.9103V11.8993C40.319 11.4618 39.9794 11.096 39.5427 11.0562C39.5185 11.0562 39.4861 11.0482 39.4619 11.0482H39.0818L38.5885 6.19634L39.2193 5.85432L39.4699 5.7191C39.7691 5.56002 39.8743 5.19414 39.7125 4.89985C39.5508 4.60555 39.1788 4.50215 38.8796 4.66123L37.9093 5.17823Z" fill="#83C5BE"/>
<path d="M16.4997 6C15.125 6 14.001 7.1056 14.001 8.45776C14.001 9.80993 15.125 10.9155 16.4997 10.9155C17.8744 10.9155 18.9984 9.80993 18.9984 8.45776C18.9984 7.1056 17.8744 6 16.4997 6ZM16.4997 9.70653C15.8043 9.70653 15.2302 9.14976 15.2302 8.45776C15.2302 7.77373 15.7962 7.209 16.4997 7.209C17.1952 7.209 17.7693 7.76577 17.7693 8.45776C17.7693 9.1418 17.1952 9.70653 16.4997 9.70653Z" fill="#83C5BE"/>
<path d="M20.6483 12.2361C20.6887 11.8702 20.6725 11.6475 20.4946 11.4487C20.4542 11.4009 20.3976 11.3453 20.0903 11.1782L19.1199 10.6612C18.8207 10.5021 18.4488 10.6055 18.287 10.8998C18.1253 11.1941 18.2304 11.56 18.5296 11.7191L18.7803 11.8543L19.411 12.1963L18.9178 17.0482H18.5377C18.5054 17.0482 18.4811 17.0482 18.4568 17.0562C18.0202 17.096 17.6806 17.4618 17.6806 17.8993V22.9103C17.535 23.0217 17.438 23.1966 17.438 23.3955C17.438 23.7295 17.7129 24 18.0525 24C18.5296 24 18.9097 23.6182 18.9097 23.1569V18.2652H19.1442C19.5 18.2652 19.597 18.2334 19.6536 18.2095C19.9367 18.1061 20.0741 17.8516 20.1226 17.3982L20.6483 12.2361Z" fill="#83C5BE"/>
<path d="M12.9093 11.1782C12.602 11.3453 12.5454 11.4009 12.5049 11.4487C12.327 11.6396 12.3109 11.8623 12.3513 12.2361L12.8769 17.3982C12.9254 17.8516 13.071 18.0982 13.3459 18.2095C13.4025 18.2334 13.4996 18.2652 13.8554 18.2652H14.0899V23.1569C14.0899 23.6261 14.478 24 14.947 24C15.2867 24 15.5616 23.7295 15.5616 23.3955C15.5616 23.1966 15.4646 23.0217 15.319 22.9103V17.8993C15.319 17.4618 14.9794 17.096 14.5427 17.0562C14.5185 17.0562 14.4861 17.0482 14.4618 17.0482H14.0818L13.5885 12.1963L14.2193 11.8543L14.4699 11.7191C14.7691 11.56 14.8743 11.1941 14.7125 10.8998C14.5508 10.6055 14.1788 10.5021 13.8796 10.6612L12.9093 11.1782Z" fill="#83C5BE"/>
<path d="M24.8332 0C23.4585 0 22.3345 1.1056 22.3345 2.45776C22.3345 3.80993 23.4585 4.91553 24.8332 4.91553C26.2078 4.91553 27.3318 3.80993 27.3318 2.45776C27.3318 1.1056 26.2078 0 24.8332 0ZM24.8332 3.70653C24.1377 3.70653 23.5636 3.14976 23.5636 2.45776C23.5636 1.77373 24.1296 1.209 24.8332 1.209C25.5286 1.209 26.1027 1.76577 26.1027 2.45776C26.1027 3.1418 25.5286 3.70653 24.8332 3.70653Z" fill="#83C5BE"/>
<path d="M28.9813 6.23611C29.0217 5.87023 29.0055 5.64752 28.8276 5.44867C28.7872 5.40094 28.7306 5.34527 28.4233 5.17823L27.453 4.66123C27.1538 4.50215 26.7818 4.60555 26.6201 4.89985C26.4583 5.19414 26.5635 5.56002 26.8627 5.7191L27.1133 5.85432L27.7441 6.19634L27.2508 11.0482H26.8707C26.8384 11.0482 26.8141 11.0482 26.7899 11.0562C26.3532 11.096 26.0136 11.4618 26.0136 11.8993V16.9103C25.868 17.0217 25.771 17.1966 25.771 17.3955C25.771 17.7295 26.0459 18 26.3856 18C26.8627 18 27.2427 17.6182 27.2427 17.1569V12.2652H27.4772C27.833 12.2652 27.9301 12.2334 27.9867 12.2095C28.2697 12.1061 28.4072 11.8516 28.4557 11.3982L28.9813 6.23611Z" fill="#83C5BE"/>
<path d="M21.2428 5.17823C20.9355 5.34527 20.8789 5.40094 20.8385 5.44867C20.6606 5.63956 20.6444 5.86227 20.6848 6.23611L21.2105 11.3982C21.259 11.8516 21.4045 12.0982 21.6795 12.2095C21.7361 12.2334 21.8331 12.2652 22.1889 12.2652H22.4234V17.1569C22.4234 17.6261 22.8116 18 23.2806 18C23.6202 18 23.8951 17.7295 23.8951 17.3955C23.8951 17.1966 23.7981 17.0217 23.6525 16.9103V11.8993C23.6525 11.4618 23.3129 11.096 22.8762 11.0562C22.852 11.0562 22.8196 11.0482 22.7954 11.0482H22.4153L21.9221 6.19634L22.5528 5.85432L22.8035 5.7191C23.1027 5.56002 23.2078 5.19414 23.0461 4.89985C22.8843 4.60555 22.5124 4.50215 22.2132 4.66123L21.2428 5.17823Z" fill="#83C5BE"/>
<path d="M8.16667 0C6.79197 0 5.66797 1.1056 5.66797 2.45776C5.66797 3.80993 6.79197 4.91553 8.16667 4.91553C9.54137 4.91553 10.6654 3.80993 10.6654 2.45776C10.6654 1.1056 9.54137 0 8.16667 0ZM8.16667 3.70653C7.47127 3.70653 6.89707 3.14976 6.89707 2.45776C6.89707 1.77373 7.46317 1.209 8.16667 1.209C8.86207 1.209 9.43627 1.76577 9.43627 2.45776C9.43627 3.1418 8.86207 3.70653 8.16667 3.70653Z" fill="#83C5BE"/>
<path d="M12.3148 6.23611C12.3553 5.87023 12.3391 5.64752 12.1612 5.44867C12.1207 5.40094 12.0641 5.34527 11.7569 5.17823L10.7865 4.66123C10.4873 4.50215 10.1153 4.60555 9.95359 4.89985C9.79189 5.19414 9.89699 5.56002 10.1962 5.7191L10.4469 5.85432L11.0776 6.19634L10.5843 11.0482H10.2043C10.1719 11.0482 10.1477 11.0482 10.1234 11.0562C9.68679 11.096 9.34709 11.4618 9.34709 11.8993V16.9103C9.20159 17.0217 9.10449 17.1966 9.10449 17.3955C9.10449 17.7295 9.37949 18 9.71909 18C10.1962 18 10.5763 17.6182 10.5763 17.1569V12.2652H10.8108C11.1666 12.2652 11.2636 12.2334 11.3202 12.2095C11.6032 12.1061 11.7407 11.8516 11.7892 11.3982L12.3148 6.23611Z" fill="#83C5BE"/>
<path d="M4.5763 5.17823C4.26902 5.34527 4.21241 5.40094 4.17198 5.44867C3.99408 5.63956 3.97791 5.86227 4.01834 6.23611L4.54395 11.3982C4.59247 11.8516 4.73803 12.0982 5.01296 12.2095C5.06957 12.2334 5.1666 12.2652 5.5224 12.2652H5.75686V17.1569C5.75686 17.6261 6.14506 18 6.61406 18C6.95366 18 7.22866 17.7295 7.22866 17.3955C7.22866 17.1966 7.13156 17.0217 6.98606 16.9103V11.8993C6.98606 11.4618 6.64636 11.096 6.20976 11.0562C6.18546 11.0562 6.15316 11.0482 6.12886 11.0482H5.74886L5.25555 6.19634L5.88626 5.85432L6.13696 5.7191C6.43616 5.56002 6.54126 5.19414 6.37956 4.89985C6.21786 4.60555 5.84586 4.50215 5.54666 4.66123L4.5763 5.17823Z" fill="#83C5BE"/>
</g>
<defs>
<clipPath id="clip0_208_950">
<rect width="50" height="24" fill="white"/>
</clipPath>
</defs>
</svg>
