<svg width="67" height="24" viewBox="0 0 67 24" fill="none" xmlns="http://www.w3.org/2000/svg">
<path d="M54.5 6C53.1253 6 52.0013 7.1056 52.0013 8.45776C52.0013 9.80993 53.1253 10.9155 54.5 10.9155C55.8747 10.9155 56.9987 9.80993 56.9987 8.45776C56.9987 7.1056 55.8747 6 54.5 6ZM54.5 9.70653C53.8045 9.70653 53.2304 9.14976 53.2304 8.45776C53.2304 7.77373 53.7965 7.209 54.5 7.209C55.1954 7.209 55.7695 7.76577 55.7695 8.45776C55.7695 9.1418 55.1954 9.70653 54.5 9.70653Z" fill="#83C5BE"/>
<path d="M58.6483 12.2361C58.6887 11.8702 58.6726 11.6475 58.4947 11.4487C58.4542 11.4009 58.3976 11.3453 58.0903 11.1782L57.12 10.6612C56.8208 10.5021 56.4488 10.6055 56.2871 10.8998C56.1254 11.1941 56.2305 11.56 56.5297 11.7191L56.7804 11.8543L57.4111 12.1963L56.9178 17.0482H56.5378C56.5054 17.0482 56.4812 17.0482 56.4569 17.0562C56.0202 17.096 55.6806 17.4618 55.6806 17.8993V22.9103C55.5351 23.0217 55.438 23.1966 55.438 23.3955C55.438 23.7295 55.713 24 56.0526 24C56.5297 24 56.9097 23.6182 56.9097 23.1569V18.2652H57.1442C57.5 18.2652 57.5971 18.2334 57.6537 18.2095C57.9367 18.1061 58.0742 17.8516 58.1227 17.3982L58.6483 12.2361Z" fill="#83C5BE"/>
<path d="M50.9096 11.1782C50.6023 11.3453 50.5457 11.4009 50.5053 11.4487C50.3274 11.6396 50.3112 11.8623 50.3517 12.2361L50.8773 17.3982C50.9258 17.8516 51.0713 18.0982 51.3463 18.2095C51.4029 18.2334 51.4999 18.2652 51.8557 18.2652H52.0902V23.1569C52.0902 23.6261 52.4784 24 52.9474 24C53.287 24 53.5619 23.7295 53.5619 23.3955C53.5619 23.1966 53.4649 23.0217 53.3194 22.9103V17.8993C53.3194 17.4618 52.9797 17.096 52.5431 17.0562C52.5188 17.0562 52.4865 17.0482 52.4622 17.0482H52.0821L51.5889 12.1963L52.2196 11.8543L52.4703 11.7191C52.7695 11.56 52.8746 11.1941 52.7129 10.8998C52.5511 10.6055 52.1792 10.5021 51.88 10.6612L50.9096 11.1782Z" fill="#83C5BE"/>
<path d="M62.8333 0C61.4587 0 60.3347 1.1056 60.3347 2.45776C60.3347 3.80993 61.4587 4.91553 62.8333 4.91553C64.208 4.91553 65.332 3.80993 65.332 2.45776C65.332 1.1056 64.208 0 62.8333 0ZM62.8333 3.70653C62.1379 3.70653 61.5638 3.14976 61.5638 2.45776C61.5638 1.77373 62.1298 1.209 62.8333 1.209C63.5288 1.209 64.1029 1.76577 64.1029 2.45776C64.1029 3.1418 63.5288 3.70653 62.8333 3.70653Z" fill="#83C5BE"/>
<path d="M66.9817 6.23611C67.0221 5.87023 67.0059 5.64752 66.828 5.44867C66.7876 5.40094 66.731 5.34527 66.4237 5.17823L65.4534 4.66123C65.1542 4.50215 64.7822 4.60555 64.6205 4.89985C64.4587 5.19414 64.5639 5.56002 64.8631 5.7191L65.1137 5.85432L65.7445 6.19634L65.2512 11.0482H64.8711C64.8388 11.0482 64.8145 11.0482 64.7903 11.0562C64.3536 11.096 64.014 11.4618 64.014 11.8993V16.9103C63.8684 17.0217 63.7714 17.1966 63.7714 17.3955C63.7714 17.7295 64.0463 18 64.386 18C64.8631 18 65.2431 17.6182 65.2431 17.1569V12.2652H65.4776C65.8334 12.2652 65.9305 12.2334 65.9871 12.2095C66.2701 12.1061 66.4075 11.8516 66.4561 11.3982L66.9817 6.23611Z" fill="#83C5BE"/>
<path d="M59.243 5.17823C58.9357 5.34527 58.8791 5.40094 58.8387 5.44867C58.6608 5.63956 58.6446 5.86227 58.685 6.23611L59.2106 11.3982C59.2592 11.8516 59.4047 12.0982 59.6797 12.2095C59.7363 12.2334 59.8333 12.2652 60.1891 12.2652H60.4236V17.1569C60.4236 17.6261 60.8117 18 61.2808 18C61.6204 18 61.8953 17.7295 61.8953 17.3955C61.8953 17.1966 61.7983 17.0217 61.6527 16.9103V11.8993C61.6527 11.4618 61.3131 11.096 60.8764 11.0562C60.8522 11.0562 60.8198 11.0482 60.7956 11.0482H60.4155L59.9222 6.19634L60.553 5.85432L60.8037 5.7191C61.1029 5.56002 61.208 5.19414 61.0463 4.89985C60.8845 4.60555 60.5125 4.50215 60.2134 4.66123L59.243 5.17823Z" fill="#83C5BE"/>
<path d="M37.8333 6C36.4587 6 35.3347 7.1056 35.3347 8.45776C35.3347 9.80993 36.4587 10.9155 37.8333 10.9155C39.208 10.9155 40.332 9.80993 40.332 8.45776C40.332 7.1056 39.208 6 37.8333 6ZM37.8333 9.70653C37.1379 9.70653 36.5638 9.14976 36.5638 8.45776C36.5638 7.77373 37.1298 7.209 37.8333 7.209C38.5288 7.209 39.1029 7.76577 39.1029 8.45776C39.1029 9.1418 38.5288 9.70653 37.8333 9.70653Z" fill="#83C5BE"/>
<path d="M41.9817 12.2361C42.0221 11.8702 42.0059 11.6475 41.828 11.4487C41.7876 11.4009 41.731 11.3453 41.4237 11.1782L40.4534 10.6612C40.1542 10.5021 39.7822 10.6055 39.6205 10.8998C39.4587 11.1941 39.5639 11.56 39.8631 11.7191L40.1137 11.8543L40.7445 12.1963L40.2512 17.0482H39.8711C39.8388 17.0482 39.8145 17.0482 39.7903 17.0562C39.3536 17.096 39.014 17.4618 39.014 17.8993V22.9103C38.8684 23.0217 38.7714 23.1966 38.7714 23.3955C38.7714 23.7295 39.0463 24 39.386 24C39.8631 24 40.2431 23.6182 40.2431 23.1569V18.2652H40.4776C40.8334 18.2652 40.9305 18.2334 40.9871 18.2095C41.2701 18.1061 41.4075 17.8516 41.4561 17.3982L41.9817 12.2361Z" fill="#83C5BE"/>
<path d="M34.243 11.1782C33.9357 11.3453 33.8791 11.4009 33.8387 11.4487C33.6608 11.6396 33.6446 11.8623 33.685 12.2361L34.2106 17.3982C34.2592 17.8516 34.4047 18.0982 34.6797 18.2095C34.7363 18.2334 34.8333 18.2652 35.1891 18.2652H35.4236V23.1569C35.4236 23.6261 35.8117 24 36.2808 24C36.6204 24 36.8953 23.7295 36.8953 23.3955C36.8953 23.1966 36.7983 23.0217 36.6527 22.9103V17.8993C36.6527 17.4618 36.3131 17.096 35.8764 17.0562C35.8522 17.0562 35.8198 17.0482 35.7956 17.0482H35.4155L34.9222 12.1963L35.553 11.8543L35.8037 11.7191C36.1029 11.56 36.208 11.1941 36.0463 10.8998C35.8845 10.6055 35.5125 10.5021 35.2134 10.6612L34.243 11.1782Z" fill="#83C5BE"/>
<path d="M46.1667 0C44.792 0 43.668 1.1056 43.668 2.45776C43.668 3.80993 44.792 4.91553 46.1667 4.91553C47.5413 4.91553 48.6653 3.80993 48.6653 2.45776C48.6653 1.1056 47.5413 0 46.1667 0ZM46.1667 3.70653C45.4712 3.70653 44.8971 3.14976 44.8971 2.45776C44.8971 1.77373 45.4631 1.209 46.1667 1.209C46.8621 1.209 47.4362 1.76577 47.4362 2.45776C47.4362 3.1418 46.8621 3.70653 46.1667 3.70653Z" fill="#83C5BE"/>
<path d="M50.315 6.23611C50.3554 5.87023 50.3393 5.64752 50.1614 5.44867C50.1209 5.40094 50.0643 5.34527 49.757 5.17823L48.7867 4.66123C48.4875 4.50215 48.1155 4.60555 47.9538 4.89985C47.792 5.19414 47.8972 5.56002 48.1964 5.7191L48.447 5.85432L49.0778 6.19634L48.5845 11.0482H48.2045C48.1721 11.0482 48.1478 11.0482 48.1236 11.0562C47.6869 11.096 47.3473 11.4618 47.3473 11.8993V16.9103C47.2017 17.0217 47.1047 17.1966 47.1047 17.3955C47.1047 17.7295 47.3796 18 47.7193 18C48.1964 18 48.5764 17.6182 48.5764 17.1569V12.2652H48.8109C49.1667 12.2652 49.2638 12.2334 49.3204 12.2095C49.6034 12.1061 49.7409 11.8516 49.7894 11.3982L50.315 6.23611Z" fill="#83C5BE"/>
<path d="M42.5763 5.17823C42.269 5.34527 42.2124 5.40094 42.172 5.44867C41.9941 5.63956 41.9779 5.86227 42.0183 6.23611L42.544 11.3982C42.5925 11.8516 42.738 12.0982 43.013 12.2095C43.0696 12.2334 43.1666 12.2652 43.5224 12.2652H43.7569V17.1569C43.7569 17.6261 44.1451 18 44.6141 18C44.9537 18 45.2286 17.7295 45.2286 17.3955C45.2286 17.1966 45.1316 17.0217 44.986 16.9103V11.8993C44.986 11.4618 44.6464 11.096 44.2097 11.0562C44.1855 11.0562 44.1531 11.0482 44.1289 11.0482H43.7488L43.2556 6.19634L43.8863 5.85432L44.137 5.7191C44.4362 5.56002 44.5413 5.19414 44.3796 4.89985C44.2178 4.60555 43.8459 4.50215 43.5467 4.66123L42.5763 5.17823Z" fill="#83C5BE"/>
<path d="M21.1667 6C19.792 6 18.668 7.1056 18.668 8.45776C18.668 9.80993 19.792 10.9155 21.1667 10.9155C22.5413 10.9155 23.6653 9.80993 23.6653 8.45776C23.6653 7.1056 22.5413 6 21.1667 6ZM21.1667 9.70653C20.4712 9.70653 19.8971 9.14976 19.8971 8.45776C19.8971 7.77373 20.4631 7.209 21.1667 7.209C21.8621 7.209 22.4362 7.76577 22.4362 8.45776C22.4362 9.1418 21.8621 9.70653 21.1667 9.70653Z" fill="#83C5BE"/>
<path d="M25.315 12.2361C25.3554 11.8702 25.3393 11.6475 25.1614 11.4487C25.1209 11.4009 25.0643 11.3453 24.757 11.1782L23.7867 10.6612C23.4875 10.5021 23.1155 10.6055 22.9538 10.8998C22.792 11.1941 22.8972 11.56 23.1964 11.7191L23.447 11.8543L24.0778 12.1963L23.5845 17.0482H23.2045C23.1721 17.0482 23.1478 17.0482 23.1236 17.0562C22.6869 17.096 22.3473 17.4618 22.3473 17.8993V22.9103C22.2017 23.0217 22.1047 23.1966 22.1047 23.3955C22.1047 23.7295 22.3796 24 22.7193 24C23.1964 24 23.5764 23.6182 23.5764 23.1569V18.2652H23.8109C24.1667 18.2652 24.2638 18.2334 24.3204 18.2095C24.6034 18.1061 24.7409 17.8516 24.7894 17.3982L25.315 12.2361Z" fill="#83C5BE"/>
<path d="M17.5763 11.1782C17.269 11.3453 17.2124 11.4009 17.172 11.4487C16.9941 11.6396 16.9779 11.8623 17.0183 12.2361L17.544 17.3982C17.5925 17.8516 17.738 18.0982 18.013 18.2095C18.0696 18.2334 18.1666 18.2652 18.5224 18.2652H18.7569V23.1569C18.7569 23.6261 19.1451 24 19.6141 24C19.9537 24 20.2286 23.7295 20.2286 23.3955C20.2286 23.1966 20.1316 23.0217 19.986 22.9103V17.8993C19.986 17.4618 19.6464 17.096 19.2097 17.0562C19.1855 17.0562 19.1531 17.0482 19.1289 17.0482H18.7488L18.2556 12.1963L18.8863 11.8543L19.137 11.7191C19.4362 11.56 19.5413 11.1941 19.3796 10.8998C19.2178 10.6055 18.8459 10.5021 18.5467 10.6612L17.5763 11.1782Z" fill="#83C5BE"/>
<path d="M4.16666 6C2.79197 6 1.66797 7.1056 1.66797 8.45776C1.66797 9.80993 2.79197 10.9155 4.16666 10.9155C5.54134 10.9155 6.66535 9.80993 6.66535 8.45776C6.66535 7.1056 5.54134 6 4.16666 6ZM4.16666 9.70653C3.47123 9.70653 2.8971 9.14976 2.8971 8.45776C2.8971 7.77373 3.46314 7.209 4.16666 7.209C4.86209 7.209 5.43622 7.76577 5.43622 8.45776C5.43622 9.1418 4.86209 9.70653 4.16666 9.70653Z" fill="#83C5BE"/>
<path d="M8.31499 12.2361C8.35543 11.8702 8.33925 11.6475 8.16135 11.4487C8.12092 11.4009 8.06432 11.3453 7.75703 11.1782L6.78667 10.6612C6.48747 10.5021 6.1155 10.6055 5.95377 10.8998C5.79205 11.1941 5.89717 11.56 6.19637 11.7191L6.44704 11.8543L7.07778 12.1963L6.58451 17.0482H6.20445C6.17211 17.0482 6.14785 17.0482 6.12359 17.0562C5.68692 17.096 5.3473 17.4618 5.3473 17.8993V22.9103C5.20174 23.0217 5.10471 23.1966 5.10471 23.3955C5.10471 23.7295 5.37964 24 5.71927 24C6.19637 24 6.57642 23.6182 6.57642 23.1569V18.2652H6.81093C7.16673 18.2652 7.26377 18.2334 7.32037 18.2095C7.60339 18.1061 7.74086 17.8516 7.78938 17.3982L8.31499 12.2361Z" fill="#83C5BE"/>
<path d="M0.576303 11.1782C0.269021 11.3453 0.212417 11.4009 0.171985 11.4487C-0.00591531 11.6396 -0.022088 11.8623 0.0183438 12.2361L0.543958 17.3982C0.592476 17.8516 0.738031 18.0982 1.01297 18.2095C1.06957 18.2334 1.16661 18.2652 1.52241 18.2652H1.75691V23.1569C1.75691 23.6261 2.14506 24 2.61407 24C2.9537 24 3.22863 23.7295 3.22863 23.3955C3.22863 23.1966 3.1316 23.0217 2.98604 22.9103V17.8993C2.98604 17.4618 2.64641 17.096 2.20975 17.0562C2.18549 17.0562 2.15314 17.0482 2.12889 17.0482H1.74883L1.25556 12.1963L1.88629 11.8543L2.13697 11.7191C2.43617 11.56 2.54129 11.1941 2.37956 10.8998C2.21784 10.6055 1.84586 10.5021 1.54667 10.6612L0.576303 11.1782Z" fill="#83C5BE"/>
<path d="M29.5 0C28.1253 0 27.0013 1.1056 27.0013 2.45776C27.0013 3.80993 28.1253 4.91553 29.5 4.91553C30.8747 4.91553 31.9987 3.80993 31.9987 2.45776C31.9987 1.1056 30.8747 0 29.5 0ZM29.5 3.70653C28.8045 3.70653 28.2304 3.14976 28.2304 2.45776C28.2304 1.77373 28.7965 1.209 29.5 1.209C30.1954 1.209 30.7695 1.76577 30.7695 2.45776C30.7695 3.1418 30.1954 3.70653 29.5 3.70653Z" fill="#83C5BE"/>
<path d="M33.6483 6.23611C33.6887 5.87023 33.6726 5.64752 33.4947 5.44867C33.4542 5.40094 33.3976 5.34527 33.0903 5.17823L32.12 4.66123C31.8208 4.50215 31.4488 4.60555 31.2871 4.89985C31.1254 5.19414 31.2305 5.56002 31.5297 5.7191L31.7804 5.85432L32.4111 6.19634L31.9178 11.0482H31.5378C31.5054 11.0482 31.4812 11.0482 31.4569 11.0562C31.0202 11.096 30.6806 11.4618 30.6806 11.8993V16.9103C30.5351 17.0217 30.438 17.1966 30.438 17.3955C30.438 17.7295 30.713 18 31.0526 18C31.5297 18 31.9097 17.6182 31.9097 17.1569V12.2652H32.1442C32.5 12.2652 32.5971 12.2334 32.6537 12.2095C32.9367 12.1061 33.0742 11.8516 33.1227 11.3982L33.6483 6.23611Z" fill="#83C5BE"/>
<path d="M25.9096 5.17823C25.6023 5.34527 25.5457 5.40094 25.5053 5.44867C25.3274 5.63956 25.3112 5.86227 25.3517 6.23611L25.8773 11.3982C25.9258 11.8516 26.0713 12.0982 26.3463 12.2095C26.4029 12.2334 26.4999 12.2652 26.8557 12.2652H27.0902V17.1569C27.0902 17.6261 27.4784 18 27.9474 18C28.287 18 28.5619 17.7295 28.5619 17.3955C28.5619 17.1966 28.4649 17.0217 28.3194 16.9103V11.8993C28.3194 11.4618 27.9797 11.096 27.5431 11.0562C27.5188 11.0562 27.4865 11.0482 27.4622 11.0482H27.0821L26.5889 6.19634L27.2196 5.85432L27.4703 5.7191C27.7695 5.56002 27.8746 5.19414 27.7129 4.89985C27.5511 4.60555 27.1792 4.50215 26.88 4.66123L25.9096 5.17823Z" fill="#83C5BE"/>
<path d="M12.5 0C11.1253 0 10.0013 1.1056 10.0013 2.45776C10.0013 3.80993 11.1253 4.91553 12.5 4.91553C13.8747 4.91553 14.9987 3.80993 14.9987 2.45776C14.9987 1.1056 13.8747 0 12.5 0ZM12.5 3.70653C11.8045 3.70653 11.2304 3.14976 11.2304 2.45776C11.2304 1.77373 11.7965 1.209 12.5 1.209C13.1954 1.209 13.7695 1.76577 13.7695 2.45776C13.7695 3.1418 13.1954 3.70653 12.5 3.70653Z" fill="#83C5BE"/>
<path d="M16.6483 6.23611C16.6887 5.87023 16.6726 5.64752 16.4947 5.44867C16.4542 5.40094 16.3976 5.34527 16.0903 5.17823L15.12 4.66123C14.8208 4.50215 14.4488 4.60555 14.2871 4.89985C14.1254 5.19414 14.2305 5.56002 14.5297 5.7191L14.7804 5.85432L15.4111 6.19634L14.9178 11.0482H14.5378C14.5054 11.0482 14.4812 11.0482 14.4569 11.0562C14.0202 11.096 13.6806 11.4618 13.6806 11.8993V16.9103C13.5351 17.0217 13.438 17.1966 13.438 17.3955C13.438 17.7295 13.713 18 14.0526 18C14.5297 18 14.9097 17.6182 14.9097 17.1569V12.2652H15.1442C15.5 12.2652 15.5971 12.2334 15.6537 12.2095C15.9367 12.1061 16.0742 11.8516 16.1227 11.3982L16.6483 6.23611Z" fill="#83C5BE"/>
<path d="M8.90962 5.17823C8.60233 5.34527 8.54573 5.40094 8.5053 5.44867C8.3274 5.63956 8.31122 5.86227 8.35166 6.23611L8.87727 11.3982C8.92579 11.8516 9.07134 12.0982 9.34628 12.2095C9.40288 12.2334 9.49992 12.2652 9.85572 12.2652H10.0902V17.1569C10.0902 17.6261 10.4784 18 10.9474 18C11.287 18 11.5619 17.7295 11.5619 17.3955C11.5619 17.1966 11.4649 17.0217 11.3194 16.9103V11.8993C11.3194 11.4618 10.9797 11.096 10.5431 11.0562C10.5188 11.0562 10.4865 11.0482 10.4622 11.0482H10.0821L9.58887 6.19634L10.2196 5.85432L10.4703 5.7191C10.7695 5.56002 10.8746 5.19414 10.7129 4.89985C10.5511 4.60555 10.1792 4.50215 9.87998 4.66123L8.90962 5.17823Z" fill="#83C5BE"/>
</svg>
