<svg xmlns="http://www.w3.org/2000/svg" width="47" height="48" viewBox="0 0 47 48" fill="none">
  <path
    fill-rule="evenodd"
    clip-rule="evenodd"
    d="M13.2252 12.8856C12.9185 12.5788 12.4212 12.5788 12.1144 12.8856C11.8077 13.1923 11.8077 13.6896 12.1144 13.9963L22.5162 24.3981L12.5125 34.4018C12.2058 34.7085 12.2058 35.2058 12.5125 35.5125C12.8192 35.8192 13.3165 35.8192 13.6232 35.5125L23.627 25.5088L33.6311 35.513C33.9379 35.8197 34.4351 35.8197 34.7419 35.513C35.0486 35.2062 35.0486 34.709 34.7419 34.4022L24.7377 24.3981L35.1399 13.9958C35.4466 13.6891 35.4466 13.1918 35.1399 12.8851C34.8332 12.5784 34.3359 12.5784 34.0292 12.8851L23.627 23.2873L13.2252 12.8856Z"
    fill="#144D29"></path>
  <path
    d="M13.2252 12.8856L13.5787 12.532L13.2252 12.8856ZM12.1144 13.9963L11.7609 14.3498L12.1144 13.9963ZM22.5162 24.3981L22.8698 24.7516C23.065 24.5563 23.065 24.2398 22.8698 24.0445L22.5162 24.3981ZM12.5125 34.4018L12.8661 34.7553L12.5125 34.4018ZM13.6232 35.5125L13.2697 35.159L13.6232 35.5125ZM23.627 25.5088L23.9805 25.1552C23.7852 24.96 23.4687 24.96 23.2734 25.1552L23.627 25.5088ZM33.6311 35.513L33.9847 35.1594L33.6311 35.513ZM34.7419 34.4022L34.3883 34.7558L34.7419 34.4022ZM24.7377 24.3981L24.3841 24.0445C24.1889 24.2398 24.1889 24.5563 24.3841 24.7516L24.7377 24.3981ZM34.0292 12.8851L33.6756 12.5315L34.0292 12.8851ZM23.627 23.2873L23.2734 23.6409C23.3672 23.7346 23.4943 23.7873 23.627 23.7873C23.7596 23.7873 23.8867 23.7346 23.9805 23.6409L23.627 23.2873ZM12.468 13.2391C12.5795 13.1276 12.7602 13.1276 12.8716 13.2391L13.5787 12.532C13.0768 12.03 12.2629 12.03 11.7609 12.532L12.468 13.2391ZM12.468 13.6427C12.3565 13.5313 12.3565 13.3506 12.468 13.2391L11.7609 12.532C11.2589 13.034 11.2589 13.8479 11.7609 14.3498L12.468 13.6427ZM22.8698 24.0445L12.468 13.6427L11.7609 14.3498L22.1627 24.7516L22.8698 24.0445ZM12.8661 34.7553L22.8698 24.7516L22.1627 24.0445L12.159 34.0482L12.8661 34.7553ZM12.8661 35.159C12.7546 35.0475 12.7546 34.8668 12.8661 34.7553L12.159 34.0482C11.657 34.5502 11.657 35.3641 12.159 35.8661L12.8661 35.159ZM13.2697 35.159C13.1582 35.2704 12.9775 35.2704 12.8661 35.159L12.159 35.8661C12.6609 36.368 13.4748 36.368 13.9768 35.8661L13.2697 35.159ZM23.2734 25.1552L13.2697 35.159L13.9768 35.8661L23.9805 25.8623L23.2734 25.1552ZM33.9847 35.1594L23.9805 25.1552L23.2734 25.8623L33.2776 35.8665L33.9847 35.1594ZM34.3883 35.1594C34.2769 35.2709 34.0961 35.2709 33.9847 35.1594L33.2776 35.8665C33.7796 36.3685 34.5934 36.3685 35.0954 35.8665L34.3883 35.1594ZM34.3883 34.7558C34.4998 34.8672 34.4998 35.048 34.3883 35.1594L35.0954 35.8665C35.5974 35.3645 35.5974 34.5507 35.0954 34.0487L34.3883 34.7558ZM24.3841 24.7516L34.3883 34.7558L35.0954 34.0487L25.0912 24.0445L24.3841 24.7516ZM34.7864 13.6423L24.3841 24.0445L25.0912 24.7516L35.4935 14.3494L34.7864 13.6423ZM34.7864 13.2386C34.8978 13.3501 34.8978 13.5308 34.7864 13.6423L35.4935 14.3494C35.9955 13.8474 35.9955 13.0335 35.4935 12.5315L34.7864 13.2386ZM34.3827 13.2386C34.4942 13.1272 34.6749 13.1272 34.7864 13.2386L35.4935 12.5315C34.9915 12.0296 34.1776 12.0295 33.6756 12.5315L34.3827 13.2386ZM23.9805 23.6409L34.3827 13.2386L33.6756 12.5315L23.2734 22.9338L23.9805 23.6409ZM12.8716 13.2391L23.2734 23.6409L23.9805 22.9338L13.5787 12.532L12.8716 13.2391Z"
    fill="#144D29"></path>
</svg>