<svg xmlns="http://www.w3.org/2000/svg" width="32" height="32" viewBox="0 0 32 32" fill="none"><path d="M5.33325 8.00008C5.33325 7.64646 5.47373 7.30732 5.72378 7.05727C5.97382 6.80722 6.31296 6.66675 6.66659 6.66675H25.3333C25.6869 6.66675 26.026 6.80722 26.2761 7.05727C26.5261 7.30732 26.6666 7.64646 26.6666 8.00008C26.6666 8.3537 26.5261 8.69284 26.2761 8.94289C26.026 9.19294 25.6869 9.33341 25.3333 9.33341H6.66659C6.31296 9.33341 5.97382 9.19294 5.72378 8.94289C5.47373 8.69284 5.33325 8.3537 5.33325 8.00008Z" fill="#144D29"></path><path d="M5.33325 24.0001C5.33325 23.6465 5.47373 23.3073 5.72378 23.0573C5.97382 22.8072 6.31296 22.6667 6.66659 22.6667H25.3333C25.6869 22.6667 26.026 22.8072 26.2761 23.0573C26.5261 23.3073 26.6666 23.6465 26.6666 24.0001C26.6666 24.3537 26.5261 24.6928 26.2761 24.9429C26.026 25.1929 25.6869 25.3334 25.3333 25.3334H6.66659C6.31296 25.3334 5.97382 25.1929 5.72378 24.9429C5.47373 24.6928 5.33325 24.3537 5.33325 24.0001Z" fill="#144D29"></path><path d="M6.66659 14.6667C6.31296 14.6667 5.97382 14.8072 5.72378 15.0573C5.47373 15.3073 5.33325 15.6465 5.33325 16.0001C5.33325 16.3537 5.47373 16.6928 5.72378 16.9429C5.97382 17.1929 6.31296 17.3334 6.66659 17.3334H17.3333C17.6869 17.3334 18.026 17.1929 18.2761 16.9429C18.5261 16.6928 18.6666 16.3537 18.6666 16.0001C18.6666 15.6465 18.5261 15.3073 18.2761 15.0573C18.026 14.8072 17.6869 14.6667 17.3333 14.6667H6.66659Z" fill="#144D29"></path></svg>