<svg xmlns="http://www.w3.org/2000/svg" width="56" height="56" viewBox="0 0 56 56" fill="none">
  <circle cx="28" cy="28" r="28" fill="#E4F5EB"></circle>
  <path
    class="path-up"
    d="M23.728 39.144C26.116 39.144 27.532 37.776 27.532 35.304V30.6H25.612V35.232C25.612 36.828 24.928 37.488 23.74 37.488C22.564 37.488 21.868 36.828 21.868 35.232V30.6H19.924V35.304C19.924 37.776 21.34 39.144 23.728 39.144ZM33.089 30.6H29.453V39H31.397V36.684H33.089C35.333 36.684 36.737 35.52 36.737 33.648C36.737 31.764 35.333 30.6 33.089 30.6ZM32.981 35.1H31.397V32.184H32.981C34.169 32.184 34.769 32.724 34.769 33.648C34.769 34.56 34.169 35.1 32.981 35.1Z"
    fill="#144D29"></path>
  <path
    class="up-arrow"
    d="M34 20L28 14L22 20"
    stroke="#144D29"
    stroke-width="2"
    stroke-linecap="round"
    stroke-linejoin="round"></path>
</svg>